<svg xmlns="http://www.w3.org/2000/svg" xmlns:oryx="http://oryx-editor.org" id="_8B5257B5-0CEE-41CF-936A-D839D691521A" width="507" height="196" xmlns:xlink="http://www.w3.org/1999/xlink" xmlns:svg="http://www.w3.org/2000/svg"><defs><marker id="_69DE2937-DACE-4FB3-8191-FED9EA3A8281start" refX="1" refY="5" markerUnits="userSpaceOnUse" markerWidth="17" markerHeight="11" orient="auto" fill="#000000" stroke="#000000"> 	  		<path id="_69DE2937-DACE-4FB3-8191-FED9EA3A8281conditional" d="M 0 5 L 8 0 L 16 5 L 8 10 L 0 5" fill="white" stroke="#000000" stroke-width="1" display="none"/> 			<path id="_69DE2937-DACE-4FB3-8191-FED9EA3A8281default" d="M 5 0 L 11 10" fill="white" stroke="#000000" stroke-width="1" display="none"/> 	  	</marker><marker id="_69DE2937-DACE-4FB3-8191-FED9EA3A8281end" refX="15" refY="6" markerUnits="userSpaceOnUse" markerWidth="15" markerHeight="12" orient="auto" fill="#000000" stroke="#000000"> 	  		<path id="_69DE2937-DACE-4FB3-8191-FED9EA3A8281frame2" d="M 0 1 L 15 6 L 0 11z" fill="#000000" stroke="#000000" stroke-linejoin="round" stroke-width="2"/> 	  	</marker><marker id="_35593DA4-A770-4696-961D-F1B1DC15C118start" refX="1" refY="5" markerUnits="userSpaceOnUse" markerWidth="17" markerHeight="11" orient="auto" fill="#000000" stroke="#000000"> 	  		<path id="_35593DA4-A770-4696-961D-F1B1DC15C118conditional" d="M 0 5 L 8 0 L 16 5 L 8 10 L 0 5" fill="white" stroke="#000000" stroke-width="1" display="none"/> 			<path id="_35593DA4-A770-4696-961D-F1B1DC15C118default" d="M 5 0 L 11 10" fill="white" stroke="#000000" stroke-width="1" display="none"/> 	  	</marker><marker id="_35593DA4-A770-4696-961D-F1B1DC15C118end" refX="15" refY="6" markerUnits="userSpaceOnUse" markerWidth="15" markerHeight="12" orient="auto" fill="#000000" stroke="#000000"> 	  		<path id="_35593DA4-A770-4696-961D-F1B1DC15C118frame2" d="M 0 1 L 15 6 L 0 11z" fill="#000000" stroke="#000000" stroke-linejoin="round" stroke-width="2"/> 	  	</marker><marker id="_4765A9A6-C758-43CF-94A8-90EED4B987D8start" refX="1" refY="5" markerUnits="userSpaceOnUse" markerWidth="17" markerHeight="11" orient="auto" fill="#000000" stroke="#000000"> 	  		<path id="_4765A9A6-C758-43CF-94A8-90EED4B987D8conditional" d="M 0 5 L 8 0 L 16 5 L 8 10 L 0 5" fill="white" stroke="#000000" stroke-width="1" display="none"/> 			<path id="_4765A9A6-C758-43CF-94A8-90EED4B987D8default" d="M 5 0 L 11 10" fill="white" stroke="#000000" stroke-width="1" display="none"/> 	  	</marker><marker id="_4765A9A6-C758-43CF-94A8-90EED4B987D8end" refX="15" refY="6" markerUnits="userSpaceOnUse" markerWidth="15" markerHeight="12" orient="auto" fill="#000000" stroke="#000000"> 	  		<path id="_4765A9A6-C758-43CF-94A8-90EED4B987D8frame2" d="M 0 1 L 15 6 L 0 11z" fill="#000000" stroke="#000000" stroke-linejoin="round" stroke-width="2"/> 	  	</marker></defs><g stroke="none" font-family="Verdana, sans-serif" font-size-adjust="none" font-style="normal" font-variant="normal" font-weight="normal" line-heigth="normal" font-size="12"><g class="stencils" transform="translate(15, 16)"><g class="me"/><g class="children"><g id="_CC017C72-B57D-42CD-8D8B-4D16C21DC22A" bpmn2nodeid="processStartEvent"><g class="stencils" transform="translate(30, 100)"><g class="me"><g pointer-events="fill" id="_CC017C72-B57D-42CD-8D8B-4D16C21DC22A">        <defs id="_CC017C72-B57D-42CD-8D8B-4D16C21DC22A__CC017C72-B57D-42CD-8D8B-4D16C21DC22A_5"> 		<radialGradient id="_CC017C72-B57D-42CD-8D8B-4D16C21DC22Abackground" cx="10%" cy="10%" r="100%" fx="10%" fy="10%"> 			<stop offset="0%" stop-color="#ffffff" stop-opacity="1" id="_CC017C72-B57D-42CD-8D8B-4D16C21DC22A__CC017C72-B57D-42CD-8D8B-4D16C21DC22A_6"/> 			<stop id="_CC017C72-B57D-42CD-8D8B-4D16C21DC22Afill_el" offset="100%" stop-color="#9acd32" stop-opacity="1"/> 		</radialGradient> 	</defs> 	     <circle id="_CC017C72-B57D-42CD-8D8B-4D16C21DC22Abg_frame" cx="15" cy="15" r="15" stroke="#000000" fill="url(#_CC017C72-B57D-42CD-8D8B-4D16C21DC22Abackground) white" stroke-width="1" style="stroke-dasharray: 5.5, 3"/>      <circle id="_CC017C72-B57D-42CD-8D8B-4D16C21DC22Aframe" cx="15" cy="15" r="15" stroke="#000000" fill="none" stroke-width="1" display="inherit"/>  	<text font-size="11" id="_CC017C72-B57D-42CD-8D8B-4D16C21DC22Atext_name" x="15" y="32" oryx:align="top center" stroke="black" stroke-width="0pt" letter-spacing="-0.01px" fill="#000000" text-anchor="middle" transform="rotate(0 15 32)" visibility="inherit" oryx:fontSize="11"/>   </g></g><g class="children" style="overflow:hidden"/><g class="edge"/></g><g class="controls"><g class="dockers"/><g class="magnets" transform="translate(30, 100)"><g pointer-events="all" display="none" transform="translate(7, 7)"><circle cx="8" cy="8" r="4" stroke="none" fill="red" fill-opacity="0.3"/></g></g></g></g><g id="_8B29FA80-E010-4FF1-83CC-786D69F2E01C" bpmn2nodeid="_3E5189A1-00F7-48DA-B6D2-5DFAE67A50F6"><g class="stencils" transform="translate(120, 75)"><g class="me"><g pointer-events="fill" oryx:minimumSize="50 40" id="_8B29FA80-E010-4FF1-83CC-786D69F2E01C">   	<defs id="_8B29FA80-E010-4FF1-83CC-786D69F2E01C__8B29FA80-E010-4FF1-83CC-786D69F2E01C_17"> 		<radialGradient id="_8B29FA80-E010-4FF1-83CC-786D69F2E01Cbackground" cx="10%" cy="10%" r="100%" fx="10%" fy="10%"> 			<stop offset="0%" stop-color="#ffffff" stop-opacity="1" id="_8B29FA80-E010-4FF1-83CC-786D69F2E01C__8B29FA80-E010-4FF1-83CC-786D69F2E01C_18"/> 			<stop id="_8B29FA80-E010-4FF1-83CC-786D69F2E01Cfill_el" offset="100%" stop-color="#fafad2" stop-opacity="1"/> 		</radialGradient> 		<radialGradient id="_8B29FA80-E010-4FF1-83CC-786D69F2E01Cborderbackground" cx="10%" cy="10%" r="100%" fx="10%" fy="10%"> 			<stop offset="0%" stop-color="#ffffff" stop-opacity="1" id="_8B29FA80-E010-4FF1-83CC-786D69F2E01C__8B29FA80-E010-4FF1-83CC-786D69F2E01C_19"/> 			<stop id="_8B29FA80-E010-4FF1-83CC-786D69F2E01Cfill_border" offset="100%" stop-color="#000000" stop-opacity="1" stroke="#000000"/> 		</radialGradient> 	</defs> 	 	<rect id="_8B29FA80-E010-4FF1-83CC-786D69F2E01Ctext_frame" oryx:anchors="bottom top right left" x="1" y="1" width="94" height="79" rx="10" ry="10" stroke="none" stroke-width="0" fill="none"/> 	<rect id="_8B29FA80-E010-4FF1-83CC-786D69F2E01Cbg_frame" oryx:resize="vertical horizontal" x="0" y="0" width="100" height="80" rx="10" ry="10" stroke="#000000" stroke-width="1" fill="url(#_8B29FA80-E010-4FF1-83CC-786D69F2E01Cbackground) #ffffcc"/> 		<text font-size="12" id="_8B29FA80-E010-4FF1-83CC-786D69F2E01Ctext_name" x="50" y="40" oryx:align="middle center" oryx:fittoelem="text_frame" stroke="black" text-anchor="middle" stroke-width="0pt" letter-spacing="-0.01px" fill="#000000" transform="rotate(0 50 40)" visibility="inherit" oryx:fontSize="12"><tspan x="50" y="40" dy="-1" id="ext-gen1197">departmentdet</tspan><tspan x="50" y="40" dy="11">ails</tspan></text>     <g id="_8B29FA80-E010-4FF1-83CC-786D69F2E01CmanualTask" transform="scale(0.7,0.7) translate(8,8)" display="none">     	<path oryx:anchors="top left" id="_8B29FA80-E010-4FF1-83CC-786D69F2E01Cframe" style="opacity:1;fill:none;fill-opacity:1;stroke-width:1" d="M0.5,3.751l4.083-3.25c0,0,11.166,0.083,12.083,0.083s-2.417,2.917-1.5,2.917     s11.667,0,12.584,0c1.166,1.708-0.168,3.167-0.834,3.667s0.875,1.917-1,4.417c-0.75,0.25,0.75,1.875-1.333,3.333     c-1.167,0.583,0.583,1.542-1.25,2.833c-1.167,0-20.833,0.083-20.833,0.083l-2-1.333V3.751z" stroke="#000000"/> 		<path id="_8B29FA80-E010-4FF1-83CC-786D69F2E01Cframe2" oryx:anchors="top left" style="opacity:1;fill:none;stroke-width:2" d="M 13.5 7 L 27 7" stroke="#000000"/> 		<path id="_8B29FA80-E010-4FF1-83CC-786D69F2E01Cframe3" oryx:anchors="top left" style="opacity:1;fill:none;stroke-width:2" d="M 13.5 11 L 26 11" stroke="#000000"/> 		<path id="_8B29FA80-E010-4FF1-83CC-786D69F2E01Cframe4" oryx:anchors="top left" style="opacity:1;fill:none;stroke-width:1.5" d="M 14 14.5 L 25 14.5" stroke="#000000"/> 		<path id="_8B29FA80-E010-4FF1-83CC-786D69F2E01Cframe5" oryx:anchors="top left" style="opacity:1;fill:none;stroke-width:1.5" d="M 8.2 3.1 L 15 3.1" stroke="#000000"/> 	</g> 	 	<g id="_8B29FA80-E010-4FF1-83CC-786D69F2E01CbusinessRuleTask" transform="scale(0.7,0.7) translate(8,8)" display="none"> 		<rect id="_8B29FA80-E010-4FF1-83CC-786D69F2E01Cframe6" oryx:anchors="top left" x="0" y="0" width="22" height="4" style="opacity:1;fill:#B3B1B3;fill-opacity:1;" stroke="#000000"/> 		<rect id="_8B29FA80-E010-4FF1-83CC-786D69F2E01Cframe7" oryx:anchors="top left" x="0" y="4" style="opacity:1;fill:none;" width="22" height="12" stroke="#000000"/> 		<path id="_8B29FA80-E010-4FF1-83CC-786D69F2E01Cframe8" oryx:anchors="top left" style="opacity:1;fill:none;" d="M 0 10 L 22 10" stroke="#000000"/> 		<path id="_8B29FA80-E010-4FF1-83CC-786D69F2E01Cframe9" oryx:anchors="top left" style="opacity:1; fill:none;" d="M 7 4 L 7 16" stroke="#000000"/> 	</g> 	 	<g id="_8B29FA80-E010-4FF1-83CC-786D69F2E01CscriptTask" transform="scale(0.7,0.7) translate(8,8)" display="none"> 		<path oryx:anchors="top left" id="_8B29FA80-E010-4FF1-83CC-786D69F2E01Cframe10" style="opacity:1;fill:none;" stroke="#000000" d="M6.402,0.5h14.5c0,0-5.833,2.833-5.833,5.583s4.417,6,4.417,9.167    s-4.167,5.083-4.167,5.083H0.235c0,0,5-2.667,5-5s-4.583-6.75-4.583-9.25S6.402,0.5,6.402,0.5z"/> 		<path oryx:anchors="top left" id="_8B29FA80-E010-4FF1-83CC-786D69F2E01Cframe11" style="opacity:1;fill:none;stroke-width:1.5" d="M 3.5 4.5 L 13.5 4.5" stroke="#000000"/> 		<path oryx:anchors="top left" id="_8B29FA80-E010-4FF1-83CC-786D69F2E01Cframe12" style="opacity:1;fill:none;stroke-width:1.5" d="M 3.8 8.5 L 13.8 8.5" stroke="#000000"/> 		<path oryx:anchors="top left" id="_8B29FA80-E010-4FF1-83CC-786D69F2E01Cframe13" style="opacity:1;fill:none;stroke-width:1.5" d="M 6.3 12.5 L 16.3 12.5" stroke="#000000"/> 		<path oryx:anchors="top left" id="_8B29FA80-E010-4FF1-83CC-786D69F2E01Cframe14" style="opacity:1;fill:none;stroke-width:1.5" d="M 6.5 16.5 L 16.5 16.5" stroke="#000000"/> 	</g> 	 	<g id="_8B29FA80-E010-4FF1-83CC-786D69F2E01CuserTask" transform="scale(0.7,0.7) translate(8,8)" display="inherit"> 		<path id="_8B29FA80-E010-4FF1-83CC-786D69F2E01Cframe15" oryx:anchors="top left" style="opacity:1;fill:#F4F6F7" stroke="#000000" d="M0.585,24.167h24.083v-7.833c0,0-2.333-3.917-7.083-5.167h-9.25    c-4.417,1.333-7.833,5.75-7.833,5.75L0.585,24.167z"/> 		<path id="_8B29FA80-E010-4FF1-83CC-786D69F2E01Cframe16" oryx:anchors="top left" style="opacity:1;fill:none" d="M 6 20 L 6 24" stroke="#000000"/> 		<path id="_8B29FA80-E010-4FF1-83CC-786D69F2E01Cframe17" oryx:anchors="top left" style="opacity:1;fill:none" d="M 20 20 L 20 24" stroke="#000000"/> 		<circle id="_8B29FA80-E010-4FF1-83CC-786D69F2E01Cframe18" oryx:anchors="top left" fill="black" cx="13.002" cy="5.916" r="5.417" stroke="#000000"/> 		<path id="_8B29FA80-E010-4FF1-83CC-786D69F2E01Cframe19" oryx:anchors="top left" style="opacity:1;fill:#F0EFF0;" stroke="#000000" d="M8.043,7.083c0,0,2.814-2.426,5.376-1.807s4.624-0.693,4.624-0.693    c0.25,1.688,0.042,3.75-1.458,5.584c0,0,1.083,0.75,1.083,1.5s0.125,1.875-1,3s-5.5,1.25-6.75,0S8.668,12.834,8.668,12    s0.583-1.25,1.25-1.917C8.835,9.5,7.419,7.708,8.043,7.083z"/> 	</g> 	 	<g id="_8B29FA80-E010-4FF1-83CC-786D69F2E01CserviceTask" transform="scale(0.7,0.7) translate(8,8)" display="none"> 		<polygon oryx:anchors="top left" id="_8B29FA80-E010-4FF1-83CC-786D69F2E01Cframe20" style="opacity:1;fill:#ffffff" stroke="#000000" points="15.392,5.064 17.954,2.502 20.347,4.895 17.786,7.455     18.729,9.732 22.353,9.732 22.353,13.115 18.731,13.115 17.788,15.392 20.351,17.955 17.958,20.347 15.397,17.786 13.12,18.729     13.12,22.353 9.737,22.353 9.737,18.731 7.46,17.788 4.897,20.35 2.506,17.958 5.066,15.397 4.124,13.12 0.5,13.12 0.5,9.737     4.121,9.737 5.065,7.461 2.503,4.898 4.895,2.506 7.455,5.066 9.732,4.125 9.732,0.5 13.116,0.5 13.116,4.121 "/> 		<circle oryx:anchors="top left" id="_8B29FA80-E010-4FF1-83CC-786D69F2E01Cframe21" style="opacity:1;fill:none" stroke="#000000" cx="11.427" cy="11.426" r="3.714"/> 		<polygon oryx:anchors="top left" id="_8B29FA80-E010-4FF1-83CC-786D69F2E01Cframe22" style="opacity:1;fill:#ffffff" stroke="#000000" points="21.392,11.064 23.954,8.502 26.347,10.895 23.786,13.455     24.729,15.732 28.353,15.732 28.353,19.115 24.731,19.115 23.788,21.392 26.351,23.955 23.958,26.347 21.397,23.786 19.12,24.729     19.12,28.353 15.737,28.353 15.737,24.731 13.46,23.788 10.897,26.35 8.506,23.958 11.066,21.397 10.124,19.12 6.5,19.12     6.5,15.737 10.121,15.737 11.065,13.461 8.503,10.898 10.895,8.506 13.455,11.066 15.732,10.125 15.732,6.5 19.116,6.5     19.116,10.121 "/> 		<circle oryx:anchors="top left" id="_8B29FA80-E010-4FF1-83CC-786D69F2E01Cframe23" style="opacity:1;fill:none;" stroke="#000000" cx="17.427" cy="17.426" r="3.714"/> 	</g> 	 	<g id="_8B29FA80-E010-4FF1-83CC-786D69F2E01CsendTask" display="none"> 		<path id="_8B29FA80-E010-4FF1-83CC-786D69F2E01Cstframe24" oryx:anchors="left top" stroke="#FFFFFF" fill="black" stroke-width="1" d="M8,11 L8,21 L24,21 L24,11 L16,17z"/> 		<path id="_8B29FA80-E010-4FF1-83CC-786D69F2E01Cstframe25" oryx:anchors="left top" stroke="#FFFFFF" fill="black" stroke-width="1" d="M7,10 L16,17 L25 10z"/> 	</g> 	 	<g id="_8B29FA80-E010-4FF1-83CC-786D69F2E01CreceiveTask" display="none"> 		<path id="_8B29FA80-E010-4FF1-83CC-786D69F2E01Cframe26" oryx:anchors="left top" stroke="#000000" fill="none" stroke-width="1" d="M8,11 L8,21 L24,21 L24,11z M8,11 L16,17 L24,11"/> 	</g> 	 	<g id="_8B29FA80-E010-4FF1-83CC-786D69F2E01Cnone" display="inherit"/>  	<g id="_8B29FA80-E010-4FF1-83CC-786D69F2E01Csequential" display="none">         <path oryx:anchors="bottom" fill="none" stroke="#000000" stroke-width="2" d="M46,76h10M46,72h10 M46,68h10" id="_8B29FA80-E010-4FF1-83CC-786D69F2E01C__8B29FA80-E010-4FF1-83CC-786D69F2E01C_20"/>     </g>   </g></g><g class="children" style="overflow:hidden"/><g class="edge"/></g><g class="controls"><g class="dockers"/><g class="magnets" transform="translate(120, 75)"><g pointer-events="all" display="none" transform="translate(-7, 12)"><circle cx="8" cy="8" r="4" stroke="none" fill="red" fill-opacity="0.3"/></g><g pointer-events="all" display="none" transform="translate(-7, 32)"><circle cx="8" cy="8" r="4" stroke="none" fill="red" fill-opacity="0.3"/></g><g pointer-events="all" display="none" transform="translate(-7, 52)"><circle cx="8" cy="8" r="4" stroke="none" fill="red" fill-opacity="0.3"/></g><g pointer-events="all" display="none" transform="translate(17, 71)"><circle cx="8" cy="8" r="4" stroke="none" fill="red" fill-opacity="0.3"/></g><g pointer-events="all" display="none" transform="translate(42, 71)"><circle cx="8" cy="8" r="4" stroke="none" fill="red" fill-opacity="0.3"/></g><g pointer-events="all" display="none" transform="translate(67, 71)"><circle cx="8" cy="8" r="4" stroke="none" fill="red" fill-opacity="0.3"/></g><g pointer-events="all" display="none" transform="translate(91, 12)"><circle cx="8" cy="8" r="4" stroke="none" fill="red" fill-opacity="0.3"/></g><g pointer-events="all" display="none" transform="translate(91, 32)"><circle cx="8" cy="8" r="4" stroke="none" fill="red" fill-opacity="0.3"/></g><g pointer-events="all" display="none" transform="translate(91, 52)"><circle cx="8" cy="8" r="4" stroke="none" fill="red" fill-opacity="0.3"/></g><g pointer-events="all" display="none" transform="translate(17, -7)"><circle cx="8" cy="8" r="4" stroke="none" fill="red" fill-opacity="0.3"/></g><g pointer-events="all" display="none" transform="translate(42, -7)"><circle cx="8" cy="8" r="4" stroke="none" fill="red" fill-opacity="0.3"/></g><g pointer-events="all" display="none" transform="translate(67, -7)"><circle cx="8" cy="8" r="4" stroke="none" fill="red" fill-opacity="0.3"/></g><g pointer-events="all" display="none" transform="translate(42, 32)"><circle cx="8" cy="8" r="4" stroke="none" fill="red" fill-opacity="0.3"/></g></g></g></g><g id="_B69762E8-B51F-4A79-BD0A-FA23E8C80029" bpmn2nodeid="_DE31C1CD-4B84-4EC5-BE25-ED244C6D727F"><g class="stencils" transform="translate(270, 75)"><g class="me"><g pointer-events="fill" oryx:minimumSize="50 40" id="_B69762E8-B51F-4A79-BD0A-FA23E8C80029">   	<defs id="_B69762E8-B51F-4A79-BD0A-FA23E8C80029__B69762E8-B51F-4A79-BD0A-FA23E8C80029_17"> 		<radialGradient id="_B69762E8-B51F-4A79-BD0A-FA23E8C80029background" cx="10%" cy="10%" r="100%" fx="10%" fy="10%"> 			<stop offset="0%" stop-color="#ffffff" stop-opacity="1" id="_B69762E8-B51F-4A79-BD0A-FA23E8C80029__B69762E8-B51F-4A79-BD0A-FA23E8C80029_18"/> 			<stop id="_B69762E8-B51F-4A79-BD0A-FA23E8C80029fill_el" offset="100%" stop-color="#fafad2" stop-opacity="1"/> 		</radialGradient> 		<radialGradient id="_B69762E8-B51F-4A79-BD0A-FA23E8C80029borderbackground" cx="10%" cy="10%" r="100%" fx="10%" fy="10%"> 			<stop offset="0%" stop-color="#ffffff" stop-opacity="1" id="_B69762E8-B51F-4A79-BD0A-FA23E8C80029__B69762E8-B51F-4A79-BD0A-FA23E8C80029_19"/> 			<stop id="_B69762E8-B51F-4A79-BD0A-FA23E8C80029fill_border" offset="100%" stop-color="#000000" stop-opacity="1" stroke="#000000"/> 		</radialGradient> 	</defs> 	 	<rect id="_B69762E8-B51F-4A79-BD0A-FA23E8C80029text_frame" oryx:anchors="bottom top right left" x="1" y="1" width="94" height="79" rx="10" ry="10" stroke="none" stroke-width="0" fill="none"/> 	<rect id="_B69762E8-B51F-4A79-BD0A-FA23E8C80029bg_frame" oryx:resize="vertical horizontal" x="0" y="0" width="100" height="80" rx="10" ry="10" stroke="#000000" stroke-width="1" fill="url(#_B69762E8-B51F-4A79-BD0A-FA23E8C80029background) #ffffcc"/> 		<text font-size="12" id="_B69762E8-B51F-4A79-BD0A-FA23E8C80029text_name" x="50" y="40" oryx:align="middle center" oryx:fittoelem="text_frame" stroke="black" text-anchor="middle" stroke-width="0pt" letter-spacing="-0.01px" fill="#000000" transform="rotate(0 50 40)" visibility="inherit" oryx:fontSize="12"><tspan x="50" y="40" dy="5" id="ext-gen1236">collegedetails</tspan></text>     <g id="_B69762E8-B51F-4A79-BD0A-FA23E8C80029manualTask" transform="scale(0.7,0.7) translate(8,8)" display="none">     	<path oryx:anchors="top left" id="_B69762E8-B51F-4A79-BD0A-FA23E8C80029frame" style="opacity:1;fill:none;fill-opacity:1;stroke-width:1" d="M0.5,3.751l4.083-3.25c0,0,11.166,0.083,12.083,0.083s-2.417,2.917-1.5,2.917     s11.667,0,12.584,0c1.166,1.708-0.168,3.167-0.834,3.667s0.875,1.917-1,4.417c-0.75,0.25,0.75,1.875-1.333,3.333     c-1.167,0.583,0.583,1.542-1.25,2.833c-1.167,0-20.833,0.083-20.833,0.083l-2-1.333V3.751z" stroke="#000000"/> 		<path id="_B69762E8-B51F-4A79-BD0A-FA23E8C80029frame2" oryx:anchors="top left" style="opacity:1;fill:none;stroke-width:2" d="M 13.5 7 L 27 7" stroke="#000000"/> 		<path id="_B69762E8-B51F-4A79-BD0A-FA23E8C80029frame3" oryx:anchors="top left" style="opacity:1;fill:none;stroke-width:2" d="M 13.5 11 L 26 11" stroke="#000000"/> 		<path id="_B69762E8-B51F-4A79-BD0A-FA23E8C80029frame4" oryx:anchors="top left" style="opacity:1;fill:none;stroke-width:1.5" d="M 14 14.5 L 25 14.5" stroke="#000000"/> 		<path id="_B69762E8-B51F-4A79-BD0A-FA23E8C80029frame5" oryx:anchors="top left" style="opacity:1;fill:none;stroke-width:1.5" d="M 8.2 3.1 L 15 3.1" stroke="#000000"/> 	</g> 	 	<g id="_B69762E8-B51F-4A79-BD0A-FA23E8C80029businessRuleTask" transform="scale(0.7,0.7) translate(8,8)" display="none"> 		<rect id="_B69762E8-B51F-4A79-BD0A-FA23E8C80029frame6" oryx:anchors="top left" x="0" y="0" width="22" height="4" style="opacity:1;fill:#B3B1B3;fill-opacity:1;" stroke="#000000"/> 		<rect id="_B69762E8-B51F-4A79-BD0A-FA23E8C80029frame7" oryx:anchors="top left" x="0" y="4" style="opacity:1;fill:none;" width="22" height="12" stroke="#000000"/> 		<path id="_B69762E8-B51F-4A79-BD0A-FA23E8C80029frame8" oryx:anchors="top left" style="opacity:1;fill:none;" d="M 0 10 L 22 10" stroke="#000000"/> 		<path id="_B69762E8-B51F-4A79-BD0A-FA23E8C80029frame9" oryx:anchors="top left" style="opacity:1; fill:none;" d="M 7 4 L 7 16" stroke="#000000"/> 	</g> 	 	<g id="_B69762E8-B51F-4A79-BD0A-FA23E8C80029scriptTask" transform="scale(0.7,0.7) translate(8,8)" display="none"> 		<path oryx:anchors="top left" id="_B69762E8-B51F-4A79-BD0A-FA23E8C80029frame10" style="opacity:1;fill:none;" stroke="#000000" d="M6.402,0.5h14.5c0,0-5.833,2.833-5.833,5.583s4.417,6,4.417,9.167    s-4.167,5.083-4.167,5.083H0.235c0,0,5-2.667,5-5s-4.583-6.75-4.583-9.25S6.402,0.5,6.402,0.5z"/> 		<path oryx:anchors="top left" id="_B69762E8-B51F-4A79-BD0A-FA23E8C80029frame11" style="opacity:1;fill:none;stroke-width:1.5" d="M 3.5 4.5 L 13.5 4.5" stroke="#000000"/> 		<path oryx:anchors="top left" id="_B69762E8-B51F-4A79-BD0A-FA23E8C80029frame12" style="opacity:1;fill:none;stroke-width:1.5" d="M 3.8 8.5 L 13.8 8.5" stroke="#000000"/> 		<path oryx:anchors="top left" id="_B69762E8-B51F-4A79-BD0A-FA23E8C80029frame13" style="opacity:1;fill:none;stroke-width:1.5" d="M 6.3 12.5 L 16.3 12.5" stroke="#000000"/> 		<path oryx:anchors="top left" id="_B69762E8-B51F-4A79-BD0A-FA23E8C80029frame14" style="opacity:1;fill:none;stroke-width:1.5" d="M 6.5 16.5 L 16.5 16.5" stroke="#000000"/> 	</g> 	 	<g id="_B69762E8-B51F-4A79-BD0A-FA23E8C80029userTask" transform="scale(0.7,0.7) translate(8,8)" display="inherit"> 		<path id="_B69762E8-B51F-4A79-BD0A-FA23E8C80029frame15" oryx:anchors="top left" style="opacity:1;fill:#F4F6F7" stroke="#000000" d="M0.585,24.167h24.083v-7.833c0,0-2.333-3.917-7.083-5.167h-9.25    c-4.417,1.333-7.833,5.75-7.833,5.75L0.585,24.167z"/> 		<path id="_B69762E8-B51F-4A79-BD0A-FA23E8C80029frame16" oryx:anchors="top left" style="opacity:1;fill:none" d="M 6 20 L 6 24" stroke="#000000"/> 		<path id="_B69762E8-B51F-4A79-BD0A-FA23E8C80029frame17" oryx:anchors="top left" style="opacity:1;fill:none" d="M 20 20 L 20 24" stroke="#000000"/> 		<circle id="_B69762E8-B51F-4A79-BD0A-FA23E8C80029frame18" oryx:anchors="top left" fill="black" cx="13.002" cy="5.916" r="5.417" stroke="#000000"/> 		<path id="_B69762E8-B51F-4A79-BD0A-FA23E8C80029frame19" oryx:anchors="top left" style="opacity:1;fill:#F0EFF0;" stroke="#000000" d="M8.043,7.083c0,0,2.814-2.426,5.376-1.807s4.624-0.693,4.624-0.693    c0.25,1.688,0.042,3.75-1.458,5.584c0,0,1.083,0.75,1.083,1.5s0.125,1.875-1,3s-5.5,1.25-6.75,0S8.668,12.834,8.668,12    s0.583-1.25,1.25-1.917C8.835,9.5,7.419,7.708,8.043,7.083z"/> 	</g> 	 	<g id="_B69762E8-B51F-4A79-BD0A-FA23E8C80029serviceTask" transform="scale(0.7,0.7) translate(8,8)" display="none"> 		<polygon oryx:anchors="top left" id="_B69762E8-B51F-4A79-BD0A-FA23E8C80029frame20" style="opacity:1;fill:#ffffff" stroke="#000000" points="15.392,5.064 17.954,2.502 20.347,4.895 17.786,7.455     18.729,9.732 22.353,9.732 22.353,13.115 18.731,13.115 17.788,15.392 20.351,17.955 17.958,20.347 15.397,17.786 13.12,18.729     13.12,22.353 9.737,22.353 9.737,18.731 7.46,17.788 4.897,20.35 2.506,17.958 5.066,15.397 4.124,13.12 0.5,13.12 0.5,9.737     4.121,9.737 5.065,7.461 2.503,4.898 4.895,2.506 7.455,5.066 9.732,4.125 9.732,0.5 13.116,0.5 13.116,4.121 "/> 		<circle oryx:anchors="top left" id="_B69762E8-B51F-4A79-BD0A-FA23E8C80029frame21" style="opacity:1;fill:none" stroke="#000000" cx="11.427" cy="11.426" r="3.714"/> 		<polygon oryx:anchors="top left" id="_B69762E8-B51F-4A79-BD0A-FA23E8C80029frame22" style="opacity:1;fill:#ffffff" stroke="#000000" points="21.392,11.064 23.954,8.502 26.347,10.895 23.786,13.455     24.729,15.732 28.353,15.732 28.353,19.115 24.731,19.115 23.788,21.392 26.351,23.955 23.958,26.347 21.397,23.786 19.12,24.729     19.12,28.353 15.737,28.353 15.737,24.731 13.46,23.788 10.897,26.35 8.506,23.958 11.066,21.397 10.124,19.12 6.5,19.12     6.5,15.737 10.121,15.737 11.065,13.461 8.503,10.898 10.895,8.506 13.455,11.066 15.732,10.125 15.732,6.5 19.116,6.5     19.116,10.121 "/> 		<circle oryx:anchors="top left" id="_B69762E8-B51F-4A79-BD0A-FA23E8C80029frame23" style="opacity:1;fill:none;" stroke="#000000" cx="17.427" cy="17.426" r="3.714"/> 	</g> 	 	<g id="_B69762E8-B51F-4A79-BD0A-FA23E8C80029sendTask" display="none"> 		<path id="_B69762E8-B51F-4A79-BD0A-FA23E8C80029stframe24" oryx:anchors="left top" stroke="#FFFFFF" fill="black" stroke-width="1" d="M8,11 L8,21 L24,21 L24,11 L16,17z"/> 		<path id="_B69762E8-B51F-4A79-BD0A-FA23E8C80029stframe25" oryx:anchors="left top" stroke="#FFFFFF" fill="black" stroke-width="1" d="M7,10 L16,17 L25 10z"/> 	</g> 	 	<g id="_B69762E8-B51F-4A79-BD0A-FA23E8C80029receiveTask" display="none"> 		<path id="_B69762E8-B51F-4A79-BD0A-FA23E8C80029frame26" oryx:anchors="left top" stroke="#000000" fill="none" stroke-width="1" d="M8,11 L8,21 L24,21 L24,11z M8,11 L16,17 L24,11"/> 	</g> 	 	<g id="_B69762E8-B51F-4A79-BD0A-FA23E8C80029none" display="inherit"/>  	<g id="_B69762E8-B51F-4A79-BD0A-FA23E8C80029sequential" display="none">         <path oryx:anchors="bottom" fill="none" stroke="#000000" stroke-width="2" d="M46,76h10M46,72h10 M46,68h10" id="_B69762E8-B51F-4A79-BD0A-FA23E8C80029__B69762E8-B51F-4A79-BD0A-FA23E8C80029_20"/>     </g>   </g></g><g class="children" style="overflow:hidden"/><g class="edge"/></g><g class="controls"><g class="dockers"/><g class="magnets" transform="translate(270, 75)"><g pointer-events="all" display="none" transform="translate(-7, 12)"><circle cx="8" cy="8" r="4" stroke="none" fill="red" fill-opacity="0.3"/></g><g pointer-events="all" display="none" transform="translate(-7, 32)"><circle cx="8" cy="8" r="4" stroke="none" fill="red" fill-opacity="0.3"/></g><g pointer-events="all" display="none" transform="translate(-7, 52)"><circle cx="8" cy="8" r="4" stroke="none" fill="red" fill-opacity="0.3"/></g><g pointer-events="all" display="none" transform="translate(17, 71)"><circle cx="8" cy="8" r="4" stroke="none" fill="red" fill-opacity="0.3"/></g><g pointer-events="all" display="none" transform="translate(42, 71)"><circle cx="8" cy="8" r="4" stroke="none" fill="red" fill-opacity="0.3"/></g><g pointer-events="all" display="none" transform="translate(67, 71)"><circle cx="8" cy="8" r="4" stroke="none" fill="red" fill-opacity="0.3"/></g><g pointer-events="all" display="none" transform="translate(91, 12)"><circle cx="8" cy="8" r="4" stroke="none" fill="red" fill-opacity="0.3"/></g><g pointer-events="all" display="none" transform="translate(91, 32)"><circle cx="8" cy="8" r="4" stroke="none" fill="red" fill-opacity="0.3"/></g><g pointer-events="all" display="none" transform="translate(91, 52)"><circle cx="8" cy="8" r="4" stroke="none" fill="red" fill-opacity="0.3"/></g><g pointer-events="all" display="none" transform="translate(17, -7)"><circle cx="8" cy="8" r="4" stroke="none" fill="red" fill-opacity="0.3"/></g><g pointer-events="all" display="none" transform="translate(42, -7)"><circle cx="8" cy="8" r="4" stroke="none" fill="red" fill-opacity="0.3"/></g><g pointer-events="all" display="none" transform="translate(67, -7)"><circle cx="8" cy="8" r="4" stroke="none" fill="red" fill-opacity="0.3"/></g><g pointer-events="all" display="none" transform="translate(42, 32)"><circle cx="8" cy="8" r="4" stroke="none" fill="red" fill-opacity="0.3"/></g></g></g></g><g id="_875A900F-19C8-420B-B43F-8E6C9992C571" bpmn2nodeid="_1F7313B7-08DA-4341-9A57-D04EDE1F2672"><g class="stencils" transform="translate(439, 100)"><g class="me"><g pointer-events="fill" id="_875A900F-19C8-420B-B43F-8E6C9992C571">      <defs id="_875A900F-19C8-420B-B43F-8E6C9992C571__875A900F-19C8-420B-B43F-8E6C9992C571_5"> 		<radialGradient id="_875A900F-19C8-420B-B43F-8E6C9992C571background" cx="10%" cy="10%" r="100%" fx="10%" fy="10%"> 			<stop offset="0%" stop-color="#ffffff" stop-opacity="1" id="_875A900F-19C8-420B-B43F-8E6C9992C571__875A900F-19C8-420B-B43F-8E6C9992C571_6"/> 			<stop id="_875A900F-19C8-420B-B43F-8E6C9992C571fill_el" offset="100%" stop-color="#ff6347" stop-opacity="1"/> 		</radialGradient> 	</defs> 	     <circle id="_875A900F-19C8-420B-B43F-8E6C9992C571bg_frame" cx="14" cy="14" r="14" stroke="#000000" fill="url(#_875A900F-19C8-420B-B43F-8E6C9992C571background) white" stroke-width="3"/> 	<text font-size="11" id="_875A900F-19C8-420B-B43F-8E6C9992C571text_name" x="14" y="30" oryx:align="top center" stroke="black" stroke-width="0pt" letter-spacing="-0.01px" fill="#000000" text-anchor="middle" transform="rotate(0 14 30)" visibility="inherit" oryx:fontSize="11"/>   </g></g><g class="children" style="overflow:hidden"/><g class="edge"/></g><g class="controls"><g class="dockers"/><g class="magnets" transform="translate(439, 100)"><g pointer-events="all" display="none" transform="translate(6, 6)"><circle cx="8" cy="8" r="4" stroke="none" fill="red" fill-opacity="0.3"/></g></g></g></g></g><g class="edge"><g id="_69DE2937-DACE-4FB3-8191-FED9EA3A8281" bpmn2nodeid="_48E98A3E-AC39-4AC3-9674-71BEB28D93CC"><g class="stencils"><g class="me"><g pointer-events="painted" bpmn2nodeid="_48E98A3E-AC39-4AC3-9674-71BEB28D93CC"><path id="_69DE2937-DACE-4FB3-8191-FED9EA3A8281_1" d="M60.6484375 115L119.1953125 115 " stroke="#000000" fill="none" stroke-width="2" stroke-linecap="round" stroke-linejoin="round" marker-start="url(#_69DE2937-DACE-4FB3-8191-FED9EA3A8281start)" marker-end="url(#_69DE2937-DACE-4FB3-8191-FED9EA3A8281end)"/></g><text id="_69DE2937-DACE-4FB3-8191-FED9EA3A8281text_name" font-size="12" x="74.6484375" y="101" oryx:edgePosition="startTop" stroke-width="0pt" letter-spacing="-0.01px" fill="#000000" text-anchor="start" transform="rotate(360 60.6484375 115)" visibility="inherit" oryx:fontSize="12"/></g><g class="children" style="overflow:hidden"/><g class="edge"/></g><g class="controls"><g class="dockers"/><g class="magnets"/></g></g><g id="_35593DA4-A770-4696-961D-F1B1DC15C118" bpmn2nodeid="_65D27F4D-13C7-48DF-9D3D-1937878A8855"><g class="stencils"><g class="me"><g pointer-events="painted" bpmn2nodeid="_65D27F4D-13C7-48DF-9D3D-1937878A8855"><path id="_35593DA4-A770-4696-961D-F1B1DC15C118_1" d="M220.21875 115L269.78125 115 " stroke="#000000" fill="none" stroke-width="2" stroke-linecap="round" stroke-linejoin="round" marker-start="url(#_35593DA4-A770-4696-961D-F1B1DC15C118start)" marker-end="url(#_35593DA4-A770-4696-961D-F1B1DC15C118end)"/></g><text id="_35593DA4-A770-4696-961D-F1B1DC15C118text_name" font-size="12" x="234.21875" y="101" oryx:edgePosition="startTop" stroke-width="0pt" letter-spacing="-0.01px" fill="#000000" text-anchor="start" transform="rotate(360 220.21875 115)" visibility="inherit" oryx:fontSize="12"/></g><g class="children" style="overflow:hidden"/><g class="edge"/></g><g class="controls"><g class="dockers"/><g class="magnets"/></g></g><g id="_4765A9A6-C758-43CF-94A8-90EED4B987D8" bpmn2nodeid="_DEACDCC7-5357-455D-8436-1D50F4862CA1"><g class="stencils"><g class="me"><g pointer-events="painted" bpmn2nodeid="_DEACDCC7-5357-455D-8436-1D50F4862CA1"><path id="_4765A9A6-C758-43CF-94A8-90EED4B987D8_1" d="M370.8749717350443 114.61748141552599L438.4922157649557 114.10908108447401 " stroke="#000000" fill="none" stroke-width="2" stroke-linecap="round" stroke-linejoin="round" marker-start="url(#_4765A9A6-C758-43CF-94A8-90EED4B987D8start)" marker-end="url(#_4765A9A6-C758-43CF-94A8-90EED4B987D8end)"/></g><text id="_4765A9A6-C758-43CF-94A8-90EED4B987D8text_name" font-size="12" x="384.8749717350443" y="100.61748141552599" oryx:edgePosition="startTop" stroke-width="0pt" letter-spacing="-0.01px" fill="#000000" text-anchor="start" transform="rotate(359.56921278299137 370.8749717350443 114.61748141552599)" visibility="inherit" oryx:fontSize="12"/></g><g class="children" style="overflow:hidden"/><g class="edge"/></g><g class="controls"><g class="dockers"/><g class="magnets"/></g></g></g><text id="_BA153550-9933-481A-8913-9E0EF5BA4A9C" style="stroke-width:1;fill:rgb(177,194,214);font-family:arial;font-weight:bold" font-size="12" onclick="ORYX.Plugins.CanvasTitle.openTextualAnalysis()" onmouseover="ORYX.Plugins.CanvasTitle.addToolTip('_BA153550-9933-481A-8913-9E0EF5BA4A9C')" transform="translate(10, 20)">IM v.1.0 (AB.IM)</text></g></g></svg>